<?xml version="1.0" encoding="UTF-8"?>
<svg version="1.1" xmlns="http://www.w3.org/2000/svg" width="810" height="810">
<!-- couronne -->
<path d="M0 0 C4.11550341 3.75325861 7.18851589 8.19783979 10.4375 12.6875 C15.09945051 19.0743111 19.80499952 25.41901333 24.625 31.6875 C33.25615076 42.92489432 41.73618418 54.26816364 50.125 65.6875 C54.84154459 72.10693917 59.62490483 78.46077618 64.50390625 84.7578125 C68.94617318 90.50536463 73.27361296 96.34082212 77.62304688 102.15869141 C79.5168458 104.6911438 81.41458287 107.220633 83.3125 109.75 C84.01503906 110.68714844 84.71757812 111.62429687 85.44140625 112.58984375 C87.53033325 115.37536784 89.62251023 118.15844022 91.71484375 120.94140625 C93.05989955 122.73176804 94.40495161 124.52213264 95.75 126.3125 C96.38848877 127.16102539 97.02697754 128.00955078 97.68481445 128.88378906 C101.18652036 133.54660867 104.633132 138.23883743 108 143 C110.91834217 141.68516427 112.94920929 140.28366724 115.171875 137.98828125 C115.74993896 137.39861572 116.32800293 136.8089502 116.92358398 136.20141602 C117.52630127 135.57807373 118.12901855 134.95473145 118.75 134.3125 C123.12306839 129.85812472 127.51119664 125.54147036 132.27734375 121.50390625 C134.72116598 119.37041066 136.95828749 117.05149513 139.23046875 114.73828125 C141.03010481 112.97042684 142.89601912 111.32745458 144.8125 109.6875 C148.02333755 106.92381971 151.02267165 104.01380404 154 101 C157.52106323 97.43599698 161.13186008 94.09695832 164.9375 90.84375 C168.2100543 87.91828479 171.25126878 84.7689672 174.3125 81.625 C176.43132579 79.55544922 178.57137354 77.61784525 180.8125 75.6875 C185.08214126 71.9866102 189.04515888 68.03208411 193 64 C196.86224792 60.06231755 200.71913692 56.18807139 204.90625 52.59375 C209.68700152 48.47595425 214.07638084 43.99462429 218.5 39.5 C223.55956502 34.35922206 228.64138442 29.36099752 234.11523438 24.66210938 C237.22389463 21.92068981 240.10192002 18.96049259 243 16 C247.82595717 11.11709939 252.70185038 6.37673229 258 2 C259.25926375 5.77779125 258.74162969 8.25210441 258.2109375 12.19921875 C258.11670502 12.90890305 258.02247253 13.61858734 257.92538452 14.34977722 C257.00791072 21.16719961 255.99058061 27.97018576 254.94058228 34.76834106 C254.50171049 37.61109791 254.06827977 40.45467796 253.63441467 43.29820251 C253.41258936 44.75173913 253.19053453 46.20524074 252.96824646 47.65870667 C251.90292867 54.62464123 250.85199766 61.5926632 249.8125 68.5625 C249.65797363 69.58770752 249.50344727 70.61291504 249.34423828 71.66918945 C248.5051857 77.30796899 247.75473314 82.94964824 247.0703125 88.609375 C246.06492914 96.85433754 244.7803662 105.04695608 243.45648193 113.24597168 C242.78091789 117.43248029 242.11476324 121.62048226 241.44921875 125.80859375 C241.25540619 127.02755844 241.25540619 127.02755844 241.05767822 128.27114868 C239.98321385 135.05365061 238.98887383 141.84518602 238.04101562 148.64648438 C236.32286432 160.93478287 234.37076894 173.18916127 232.46337891 185.44921875 C230.67904065 196.9234375 228.90835427 208.3882141 227.4296875 219.90625 C226.9155517 223.60802778 226.22489861 227.26130215 225.52319336 230.93115234 C224.93778008 234.36495772 224.52516199 237.79796443 224.12109375 241.2578125 C223.4201308 247.05161955 222.58278166 252.80634987 221.59765625 258.55859375 C221.47329193 259.28507614 221.34892761 260.01155853 221.22079468 260.76005554 C220.71225244 263.71162304 220.19887939 266.66230459 219.67993164 269.61206055 C217.2669632 283.38344803 215.67086395 297.07613373 214 311 C73.75 311 -66.5 311 -211 311 C-212.32 302.09 -213.64 293.18 -215 284 C-215.83593158 278.84943009 -216.68045938 273.70473431 -217.5625 268.5625 C-219.10195342 259.46152756 -220.5786112 250.3587459 -221.91308594 241.22558594 C-222.79483273 235.23898927 -223.79244092 229.27690559 -224.8125 223.3125 C-226.68882863 212.29695975 -228.28574734 201.24707892 -229.875 190.1875 C-232.00953036 175.34130746 -234.3740907 160.55346959 -236.95825195 145.77929688 C-237.20402818 144.37371354 -237.44971737 142.96811499 -237.6953125 141.5625 C-237.87053688 140.55987122 -237.87053688 140.55987122 -238.04930115 139.5369873 C-239.09540867 133.51761191 -240.01384542 127.48479975 -240.88745117 121.43847656 C-241.98418298 113.92031215 -243.24160872 106.43003564 -244.5 98.9375 C-247.10586018 83.40067329 -249.61874891 67.8662528 -251.80297852 52.2644043 C-252.7961909 45.24368653 -253.91871117 38.24757635 -255.0625 31.25 C-256.6488051 21.52370064 -257.97542482 11.80087043 -259 2 C-252.6731337 6.30226908 -247.49319872 11.3852431 -242.15161133 16.81713867 C-238.47235766 20.55192076 -234.72494382 24.10562084 -230.72265625 27.49609375 C-228.27468564 29.63321095 -226.03399195 31.95642972 -223.7578125 34.2734375 C-222.02336652 35.97704888 -220.22761453 37.55144038 -218.375 39.125 C-213.800806 43.05088304 -209.6061847 47.34068202 -205.39208984 51.64501953 C-202.48773867 54.70165016 -202.48773867 54.70165016 -199 57 C-199 57.66 -199 58.32 -199 59 C-198.4234668 59.24983643 -197.84693359 59.49967285 -197.25292969 59.75708008 C-194.68536649 61.17358032 -193.00010232 62.78921967 -190.953125 64.88671875 C-189.8084375 66.0478418 -189.8084375 66.0478418 -188.640625 67.23242188 C-187.85171875 68.04259766 -187.0628125 68.85277344 -186.25 69.6875 C-181.21933912 74.83135075 -176.16808659 79.83211497 -170.70605469 84.51879883 C-168.70481045 86.25628435 -166.8404595 88.09380981 -165 90 C-162.46027814 92.5792506 -159.87548686 95.02217389 -157.125 97.375 C-153.93317491 100.11621449 -150.95697023 103.00685888 -148 106 C-145.16510001 108.86926241 -142.32879341 111.64486711 -139.25 114.25 C-135.29019736 117.63031933 -131.6595588 121.30242106 -128 125 C-123.16554156 129.87978946 -118.29342701 134.61331743 -113 139 C-112.401875 139.50273437 -111.80375 140.00546875 -111.1875 140.5234375 C-109.79697011 141.68865005 -108.39941946 142.84547895 -107 144 C-106.73960937 143.43796875 -106.47921875 142.8759375 -106.2109375 142.296875 C-104.87287094 139.75886489 -103.3261916 137.56132361 -101.625 135.25 C-100.91085937 134.27933594 -100.19671875 133.30867187 -99.4609375 132.30859375 C-95.18462249 126.54905236 -90.87687451 120.81309433 -86.56445312 115.08056641 C-84.03966721 111.72285331 -81.52003196 108.36128157 -79 105 C-78.00783858 103.67706377 -77.015651 102.35414717 -76.0234375 101.03125 C-75.5294043 100.37253906 -75.03537109 99.71382813 -74.52636719 99.03515625 C-60.08398438 79.77864583 -45.64160156 60.52213542 -31.19921875 41.265625 C-30.7079248 40.61053955 -30.21663086 39.9554541 -29.71044922 39.28051758 C-28.69264967 37.9235059 -27.67474551 36.56657268 -26.65673828 35.2097168 C-24.07469322 31.76794304 -21.49444504 28.32485118 -18.91796875 24.87890625 C-12.67631375 16.53543895 -6.37758558 8.24006632 0 0 Z " fill="#FFF" transform="translate(405,87)"/>
<path d="M0 0 C3.99236839 1.33078946 5.29726021 3.91089166 7.5625 7.25 C8.45765422 8.536537 9.35483997 9.82166255 10.25390625 11.10546875 C10.93864014 12.08459229 10.93864014 12.08459229 11.63720703 13.08349609 C13.68674311 15.96577094 15.83184818 18.76887026 18 21.5625 C18.40976074 22.09101563 18.81952148 22.61953125 19.24169922 23.1640625 C20.0727624 24.23438594 20.90446844 25.30421053 21.73681641 26.37353516 C23.89848742 29.15688504 26.04157224 31.95450732 28.1875 34.75 C30.90178608 38.28261689 33.62702289 41.80600136 36.375 45.3125 C40.11463008 50.10802563 43.74478155 54.98459498 47.38623047 59.85473633 C50.95755722 64.62557149 54.57221385 69.35907602 58.21679688 74.07421875 C61.96115634 78.92823784 65.63646239 83.8326827 69.30175781 88.74658203 C72.05492433 92.4307839 74.83485912 96.09124223 77.65234375 99.7265625 C78.25264404 100.50290039 78.85294434 101.27923828 79.47143555 102.07910156 C80.63941419 103.58681209 81.81133575 105.09147801 82.98754883 106.59277344 C83.77488403 107.61032715 83.77488403 107.61032715 84.578125 108.6484375 C85.28050293 109.54828369 85.28050293 109.54828369 85.99707031 110.46630859 C87 112 87 112 87 114 C87.66 114 88.32 114 89 114 C90.83707331 116.53389422 92.47932531 119.16544984 94.1484375 121.8125 C95.06496094 122.8953125 95.06496094 122.8953125 96 124 C97.32 124 98.64 124 100 124 C100 123.34 100 122.68 100 122 C101.2578125 120.765625 101.2578125 120.765625 103.125 119.25 C107.3090613 115.70620431 111.15173191 111.89841839 115 108 C119.17863328 103.77637619 123.37274703 99.69048239 127.921875 95.86328125 C131.43316386 92.71500158 134.69626593 89.30720827 137.96533203 85.90966797 C139.27408061 84.57015547 140.63338067 83.28041719 142 82 C142.66 82 143.32 82 144 82 C144.33 81.01 144.66 80.02 145 79 C146.42578125 77.59765625 146.42578125 77.59765625 148.3125 76.0625 C152.07422905 72.88157651 155.54702819 69.50616962 159 66 C162.90619915 62.04388526 166.87251539 58.26439596 171.1171875 54.66796875 C174.01405014 52.10166097 176.66779472 49.30492467 179.3359375 46.50390625 C181 45 181 45 183 45 C182.54802163 48.79245175 182.08723479 52.58378578 181.625 56.375 C181.49867188 57.43589844 181.37234375 58.49679688 181.2421875 59.58984375 C180.53275443 65.3717233 179.64850945 71.04825956 178.45068359 76.74853516 C177.80373901 79.9804544 177.39818317 83.22920964 177 86.5 C176.46167122 90.70569359 175.88463389 94.85327864 175 99 C174.16618384 102.94285161 173.58249161 106.8783703 173.0625 110.875 C172.70910549 113.58343763 172.35547986 116.29183596 172 119 C171.89042969 119.8357959 171.78085937 120.6715918 171.66796875 121.53271484 C171.31092786 124.21101196 170.938142 126.88675428 170.5625 129.5625 C170.45236572 130.40731934 170.34223145 131.25213867 170.22875977 132.12255859 C169.51716622 137.0932853 168.72139541 142.27860459 165 146 C163.25371659 146.09737417 161.50345062 146.12371462 159.75445461 146.12304783 C158.03763742 146.1260344 158.03763742 146.1260344 156.28613704 146.12908131 C155.01281884 146.12616847 153.73950065 146.12325563 152.42759705 146.12025452 C151.07379927 146.1206901 149.72000157 146.12156477 148.36620432 146.12284368 C144.6287368 146.12509118 140.89129765 146.1210639 137.15383375 146.11606562 C133.12995551 146.11176494 129.10607899 146.11320727 125.0821991 146.1139679 C118.10479793 146.11449338 111.12740607 146.11134409 104.15000725 146.10573006 C94.06174123 146.09761828 83.97347974 146.09500017 73.88521082 146.09374207 C57.51941859 146.09155104 41.15363133 146.08488958 24.7878418 146.07543945 C8.88582382 146.06626665 -7.01619281 146.05918517 -22.91821289 146.05493164 C-23.89768472 146.05466892 -24.87715654 146.05440619 -25.88630933 146.05413551 C-30.79981406 146.05283051 -35.7133188 146.0515668 -40.62682354 146.05032361 C-81.41788582 146.03994941 -122.20894263 146.02232972 -163 146 C-165.28522199 141.62308278 -166.48941386 138.16852568 -167.0625 133.25 C-167.58148702 129.14528451 -168.1261174 125.10674737 -169 121.0625 C-169.79122873 117.28151386 -170.33881474 113.52125176 -170.8125 109.6875 C-171.8028919 101.91490439 -173.14548729 94.21666234 -174.5 86.5 C-176.22099382 76.68204505 -177.79266714 66.8948802 -179 57 C-179.32873046 54.66601374 -179.6609387 52.33250788 -180 50 C-178 50 -178 50 -175.875 52 C-174.9140993 52.99753327 -173.95612292 53.99788636 -173 55 C-169.25337309 58.83487722 -165.50245522 62.62560377 -161.4375 66.125 C-153.24557232 73.18535791 -145.46563018 80.72800167 -137.6015625 88.1484375 C-127.62459947 97.56179503 -127.62459947 97.56179503 -117.46875 106.78125 C-113.81883614 110.06155233 -110.22723363 113.40466188 -106.63964844 116.75292969 C-103.18680007 119.95960876 -99.64337901 123.01112021 -96 126 C-90.49596029 118.88858586 -85.03130862 111.74856676 -79.625 104.5625 C-79.12581055 103.90121094 -78.62662109 103.23992187 -78.11230469 102.55859375 C-75.89373985 99.60250197 -73.75348238 96.64915966 -71.7734375 93.52734375 C-71.18820312 92.69332031 -70.60296875 91.85929687 -70 91 C-69.34 91 -68.68 91 -68 91 C-67.78601563 90.32195312 -67.57203125 89.64390625 -67.3515625 88.9453125 C-65.57460537 85.07298395 -63.0859092 82.13591257 -60.375 78.875 C-59.2716106 77.5223215 -58.17004999 76.1681492 -57.0703125 74.8125 C-56.53696289 74.15507812 -56.00361328 73.49765625 -55.45410156 72.8203125 C-53.64515698 70.55579087 -51.93522362 68.23280166 -50.25 65.875 C-46.2996867 60.35118664 -42.18513968 54.95861289 -38.0625 49.5625 C-31.86724163 41.45137919 -25.69825336 33.32380937 -19.61132812 25.13085938 C-13.26234816 16.5857433 -6.84456715 8.15817095 0 0 Z " fill="#EEEEE" transform="translate(405,194)"/>
<!-- P -->
<path d="M0 0 C75.35259434 0 75.35259434 0 89.01953125 12.8203125 C96.55649318 21.11543037 97.17992421 29.61737166 97.1875 40.375 C97.19974609 41.2825 97.21199219 42.19 97.22460938 43.125 C97.24773805 53.8258672 94.76205501 61.76173949 87.5 69.75 C74.36003728 81.57596644 59.58236751 81.31672684 42.6875 81.125 C37.510625 81.08375 32.33375 81.0425 27 81 C27 93.87 27 106.74 27 120 C18.09 120 9.18 120 0 120 C0 80.4 0 40.8 0 0 Z " fill="#010101" transform="translate(94,440)"/>
<path d="M0 0 C4.41375 -0.061875 8.8275 -0.12375 13.375 -0.1875 C15.43113525 -0.22846802 15.43113525 -0.22846802 17.52880859 -0.27026367 C34.1930346 -0.38254979 34.1930346 -0.38254979 39.96435547 4.74536133 C44.15800157 9.3496593 45.41824808 13.40020393 45.34765625 19.58203125 C44.59997162 24.78221988 41.67619657 28.67668692 37.625 31.875 C29.54151759 35.3393496 22.29354973 35.23871044 13.5625 35.125 C9.086875 35.08375 4.61125 35.0425 0 35 C0 23.45 0 11.9 0 0 Z " fill="#F4F4F4" transform="translate(121,463)"/>
<!-- A -->
<path d="M0 0 C10.89 0 21.78 0 33 0 C39.7248782 16.81219549 39.7248782 16.81219549 42 23.5625 C44.24336065 30.07775229 46.78027365 36.36766145 49.60546875 42.65625 C50.97437548 45.93855858 52.09741968 49.22979082 53.19848633 52.60791016 C54.59121561 56.76446254 56.17688061 60.84654299 57.75 64.9375 C58.09998047 65.85136475 58.44996094 66.76522949 58.81054688 67.70678711 C59.87099291 70.47224053 60.9348185 73.23636748 62 76 C62.30486328 76.79180664 62.60972656 77.58361328 62.92382812 78.39941406 C66.64734911 88.05807755 70.45089175 97.68267409 74.3359375 107.27758789 C74.65433594 108.06770264 74.97273438 108.85781738 75.30078125 109.671875 C75.58091064 110.3637793 75.86104004 111.05568359 76.1496582 111.76855469 C77.1836313 114.48188059 78.08178228 117.24534684 79 120 C69.43 120 59.86 120 50 120 C49.05125 117.31875 48.1025 114.6375 47.125 111.875 C46.82996582 111.04210449 46.53493164 110.20920898 46.23095703 109.35107422 C45.99231934 108.6757666 45.75368164 108.00045898 45.5078125 107.3046875 C45.26691895 106.62390137 45.02602539 105.94311523 44.77783203 105.24169922 C43.82748424 102.50281241 42.91676943 99.75030829 42 97 C24.84 97 7.68 97 -10 97 C-10.33 98.98 -10.66 100.96 -11 103 C-11.42901126 104.44769622 -11.89678163 105.88471514 -12.41015625 107.3046875 C-12.77185913 108.31764893 -12.77185913 108.31764893 -13.14086914 109.35107422 C-13.44500732 110.18396973 -13.74914551 111.01686523 -14.0625 111.875 C-15.031875 114.55625 -16.00125 117.2375 -17 120 C-26.24 120 -35.48 120 -45 120 C-44.14024956 115.70124779 -43.07980364 112.63494199 -41.3125 108.6875 C-36.76179312 98.34385128 -32.97009039 87.71971847 -29.125 77.09765625 C-23.95345612 62.85795382 -18.76909849 48.61710606 -12.9921875 34.609375 C-12.13590151 32.35741027 -11.36004656 30.1036811 -10.60546875 27.81640625 C-8.98323032 22.90197806 -7.22792169 18.04281559 -5.4375 13.1875 C-4.98213867 11.93936523 -4.98213867 11.93936523 -4.51757812 10.66601562 C-4.22173828 9.86228516 -3.92589844 9.05855469 -3.62109375 8.23046875 C-3.3573999 7.51270264 -3.09370605 6.79493652 -2.82202148 6.05541992 C-1.99509711 3.98774059 -0.99590178 1.99180355 0 0 Z " fill="#020202" transform="translate(226,440)"/>
<path d="M0 0 C2 1 2 1 2.7890625 2.80078125 C3.20285156 4.04408203 3.20285156 4.04408203 3.625 5.3125 C5.59267478 10.96401703 7.76596207 16.51248937 10 22.0625 C10.33209473 22.88854736 10.66418945 23.71459473 11.00634766 24.56567383 C11.33425293 25.38060303 11.6621582 26.19553223 12 27.03515625 C12.48726562 28.24969482 12.48726562 28.24969482 12.984375 29.48876953 C13.69402727 31.24345302 14.41359278 32.99414532 15.140625 34.74169922 C15.50671875 35.63002441 15.8728125 36.51834961 16.25 37.43359375 C16.58515625 38.23724365 16.9203125 39.04089355 17.265625 39.86889648 C18 42 18 42 18 45 C6.45 45 -5.1 45 -17 45 C-15.08146951 38.60489836 -13.14494279 32.48041746 -10.6875 26.3125 C-10.3869873 25.549375 -10.08647461 24.78625 -9.77685547 24 C-8.85568242 21.66487716 -7.92845237 19.33223681 -7 17 C-6.41534503 15.52474733 -5.83070898 14.04948717 -5.24609375 12.57421875 C-1.20925989 2.41851977 -1.20925989 2.41851977 0 0 Z " fill="#FFFE" transform="translate(242,469)"/>
<!-- L -->
<path d="M0 0 C8.58 0 17.16 0 26 0 C26 31.68 26 63.36 26 96 C44.15 96 62.3 96 81 96 C81 103.92 81 111.84 81 120 C54.27 120 27.54 120 0 120 C0 80.4 0 40.8 0 0 Z " fill="#010101" transform="translate(312,440)"/>
<!-- A -->
<path d="M0 0 C10.89 0 21.78 0 33 0 C39.52255068 14.67573904 45.21055507 29.62954177 50.72265625 44.70703125 C51.31491892 46.32558863 51.90736805 47.94407779 52.5 49.5625 C52.79366455 50.36494141 53.0873291 51.16738281 53.38989258 51.99414062 C55.21435957 56.95080254 57.12776467 61.86068515 59.125 66.75 C61.0944642 71.5983116 62.83908913 76.45483158 64.4375 81.4375 C66.4135981 87.51829061 68.78436965 93.2979322 71.3984375 99.12915039 C79 116.1049966 79 116.1049966 79 120 C69.43 120 59.86 120 50 120 C47.125 111.25 47.125 111.25 46.23095703 108.51269531 C45.99231934 107.79178711 45.75368164 107.07087891 45.5078125 106.328125 C45.26691895 105.5949707 45.02602539 104.86181641 44.77783203 104.10644531 C43.90917569 101.63552633 43.90917569 101.63552633 42 98 C24.84 97.67 7.68 97.34 -10 97 C-10.33 99.31 -10.66 101.62 -11 104 C-11.66430664 106.26342773 -11.66430664 106.26342773 -12.41015625 108.18359375 C-12.6512915 108.81579834 -12.89242676 109.44800293 -13.14086914 110.09936523 C-13.44500732 110.87094971 -13.74914551 111.64253418 -14.0625 112.4375 C-15.031875 114.933125 -16.00125 117.42875 -17 120 C-26.24 120 -35.48 120 -45 120 C-43.126894 113.75631332 -41.38489023 108.23643232 -38.6875 102.4375 C-35.26641311 94.84764152 -32.49034636 87.12084055 -29.78564453 79.25341797 C-26.1891682 68.93785657 -22.3070175 58.71425857 -18.36328125 48.52734375 C-12.12820604 32.3947566 -6.06242379 16.19803857 0 0 Z " fill="#020202" transform="translate(446,440)"/>
<path d="M0 0 C0.66 0 1.32 0 2 0 C2.4125 1.13953125 2.825 2.2790625 3.25 3.453125 C6.79365537 13.1831266 10.47042523 22.83845087 14.421875 32.41113281 C14.90527344 33.59594238 14.90527344 33.59594238 15.3984375 34.8046875 C15.68380371 35.49546387 15.96916992 36.18624023 16.26318359 36.89794922 C17 39 17 39 18 44 C6.78 44 -4.44 44 -16 44 C-14.6665126 37.99930668 -13.32147948 32.64669551 -11.125 27 C-10.85961426 26.30503418 -10.59422852 25.61006836 -10.32080078 24.89404297 C-8.65493454 20.57127665 -6.88286065 16.31434434 -4.9453125 12.10546875 C-3.15938918 8.12773044 -1.59274635 4.05811436 0 0 Z " fill="#EFEFEF" transform="translate(462,470)"/>
<!-- C -->
<path d="M0 0 C0.63679687 0.56203125 1.27359375 1.1240625 1.9296875 1.703125 C2.66960937 2.32703125 3.40953125 2.9509375 4.171875 3.59375 C10.7769059 9.59832354 14.72209235 16.42113495 17.9296875 24.703125 C17.9296875 26.023125 17.9296875 27.343125 17.9296875 28.703125 C15.06296547 30.13648601 12.22619213 30.28113686 9.0546875 30.703125 C5.27866343 31.20764596 1.60990015 31.72011014 -2.0703125 32.703125 C-5.5078125 33.265625 -5.5078125 33.265625 -9.0703125 32.703125 C-10.57290188 30.89818532 -11.58272231 29.00210326 -12.69921875 26.9375 C-16.49888777 20.74544679 -22.34105952 17.08596536 -29.0703125 14.703125 C-31.85531314 14.26225749 -34.56623126 14.18018711 -37.3828125 14.203125 C-38.49668335 14.2040918 -38.49668335 14.2040918 -39.63305664 14.20507812 C-45.26675818 14.35722426 -49.44145476 15.6184101 -54.28515625 18.609375 C-56.0703125 19.703125 -56.0703125 19.703125 -58.0703125 19.703125 C-58.0703125 20.363125 -58.0703125 21.023125 -58.0703125 21.703125 C-58.82828125 22.28320312 -59.58625 22.86328125 -60.3671875 23.4609375 C-63.38524081 25.96435167 -64.6232614 28.06790878 -66.3203125 31.578125 C-66.82046875 32.58617187 -67.320625 33.59421875 -67.8359375 34.6328125 C-72.13573924 45.32788899 -71.32788906 59.11027453 -67.0703125 69.703125 C-63.09802656 77.78855808 -57.85708765 83.32198948 -49.57177734 86.86083984 C-45.46783138 88.24270726 -41.56225068 88.4277682 -37.2578125 88.390625 C-35.94949463 88.38083618 -35.94949463 88.38083618 -34.61474609 88.37084961 C-26.85278209 88.0838224 -20.85669762 86.09853815 -15.0703125 80.703125 C-13.48718566 78.27057782 -13.48718566 78.27057782 -12.1953125 75.765625 C-10.86328125 73.46484375 -10.86328125 73.46484375 -9.0703125 71.703125 C-4.33063753 70.75027205 0.14753911 71.21747677 4.9296875 71.703125 C7.38801505 71.86987692 9.84634802 72.03654899 12.3046875 72.203125 C14.18017061 72.36426436 16.05538667 72.52877143 17.9296875 72.703125 C15.14325142 85.70649336 8.2567829 96.21925669 -2.59375 104.10546875 C-17.9963645 114.0418557 -35.71471407 116.14460998 -53.6953125 112.953125 C-55.16472855 112.57740741 -56.62450204 112.16136001 -58.0703125 111.703125 C-59.27107422 111.33574219 -59.27107422 111.33574219 -60.49609375 110.9609375 C-74.03622459 106.20188685 -84.53242842 96.35653715 -90.8828125 83.640625 C-91.98306375 81.34239681 -93.03078838 79.0303355 -94.0703125 76.703125 C-94.42222656 75.92453125 -94.77414062 75.1459375 -95.13671875 74.34375 C-100.7416694 60.80522186 -99.51644532 41.04713885 -94.6953125 27.453125 C-94.17024335 26.19606289 -93.62870444 24.94574369 -93.0703125 23.703125 C-92.80605469 23.07148438 -92.54179688 22.43984375 -92.26953125 21.7890625 C-86.13520701 8.22328819 -74.6894489 -2.07349293 -60.89453125 -7.32421875 C-59.96253906 -7.64519531 -59.03054688 -7.96617187 -58.0703125 -8.296875 C-57.04808594 -8.65652344 -56.02585937 -9.01617187 -54.97265625 -9.38671875 C-37.486744 -14.87018787 -14.23672021 -11.69655851 0 0 Z " fill="#030303" transform="translate(619.0703125,448.296875)"/>
<!-- E -->
<path d="M0 0 C25.41 0 50.82 0 77 0 C77 8.25 77 16.5 77 25 C60.5 25 44 25 27 25 C27 32.59 27 40.18 27 48 C42.51 48 58.02 48 74 48 C74 55.92 74 63.84 74 72 C58.49 72 42.98 72 27 72 C27 79.92 27 87.84 27 96 C43.83 96 60.66 96 78 96 C78 103.92 78 111.84 78 120 C52.26 120 26.52 120 0 120 C0 80.4 0 40.8 0 0 Z " fill="#040404" transform="translate(647,440)"/>

<!-- C -->
<path d="M0 0 C5.88089286 5.25380758 9.80938272 10.94235199 13.05004883 18.13476562 C13.4290332 18.81667969 13.80801758 19.49859375 14.19848633 20.20117188 C15.05004883 22.13476562 15.05004883 22.13476562 15.05004883 26.13476562 C14.4905957 26.24433594 13.93114258 26.35390625 13.35473633 26.46679688 C6.90161442 27.74289655 0.47608234 29.12482186 -5.94604492 30.54882812 C-8.94995117 31.13476562 -8.94995117 31.13476562 -11.94995117 31.13476562 C-12.2412793 30.54308594 -12.53260742 29.95140625 -12.83276367 29.34179688 C-17.01282437 21.28400692 -22.46516337 16.39169405 -30.94995117 13.13476562 C-33.93196669 12.58323507 -36.79794343 12.51227029 -39.82495117 12.57226562 C-40.61434082 12.58394775 -41.40373047 12.59562988 -42.21704102 12.60766602 C-51.36772593 12.95309919 -57.09002651 15.87193963 -63.38745117 22.50976562 C-71.22059953 32.06084792 -72.6913787 43.12686333 -71.94995117 55.13476562 C-71.00699888 64.39699057 -66.84948155 73.15836283 -59.63745117 79.13476562 C-51.62389717 84.70418566 -43.63816184 86.24693267 -33.94995117 85.13476562 C-26.64043372 83.36449187 -19.99731068 80.72013416 -15.70385742 74.25976562 C-14.72751665 72.58410811 -13.83077854 70.86254239 -12.94995117 69.13476562 C-3.5711751 68.97490012 5.70195104 69.4704338 15.05004883 70.13476562 C13.30852617 82.51892675 5.39135955 92.19967372 -3.94995117 100.13476562 C-15.41364624 107.73939502 -26.67800803 110.70539119 -40.32495117 110.57226562 C-41.42476318 110.56396729 -42.5245752 110.55566895 -43.65771484 110.54711914 C-58.70142301 110.23401033 -71.47362306 105.41432817 -82.69995117 95.07226562 C-95.25110018 81.61161306 -100.75279544 64.49714197 -100.54199219 46.36181641 C-99.84965378 28.93064424 -93.4177817 13.46727838 -80.62182617 1.38867188 C-58.27349418 -17.46364912 -22.85705461 -19.19672178 0 0 Z " fill="#030303" transform="translate(302.949951171875,593.865234375)"/>
<!-- L -->
<path d="M0 0 C8.58 0 17.16 0 26 0 C26 30.69 26 61.38 26 93 C42.17 93 58.34 93 75 93 C75 101.25 75 109.5 75 118 C50.25 118 25.5 118 0 118 C0 79.06 0 40.12 0 0 Z " fill="#010101" transform="translate(328,584)"/>
<!-- U -->
<path d="M0 0 C8.25 0 16.5 0 25 0 C25.0093457 2.17360107 25.01869141 4.34720215 25.02832031 6.58666992 C25.06227757 13.81516405 25.11792882 21.04337831 25.18390274 28.27164745 C25.22320184 32.64880432 25.25547554 37.02576529 25.27099609 41.40307617 C25.28627964 45.63735359 25.32092823 49.87109182 25.36830902 54.10512733 C25.38300343 55.71037386 25.39103405 57.31569742 25.39188385 58.92101097 C25.40431836 70.64591704 25.61794418 82.87789004 34 92 C41.34616402 95.94516216 50.52133468 96.64359959 58.5390625 94.23828125 C60.51806403 93.30066442 62.22869798 92.28251235 64 91 C64.763125 90.46375 65.52625 89.9275 66.3125 89.375 C72.48298201 80.69061792 71.47382064 69.34358542 71.51171875 59.1796875 C71.52859094 57.46760797 71.54674455 55.75554063 71.56611633 54.04348755 C71.61334695 49.56872368 71.6433297 45.09400927 71.66955566 40.61907959 C71.69949813 36.04022457 71.74598097 31.46153955 71.79101562 26.8828125 C71.87674187 17.92194504 71.94269104 8.9610943 72 0 C80.58 0 89.16 0 98 0 C98.02269172 9.44115228 98.04099603 18.88228612 98.05181217 28.32345963 C98.05700624 32.70848869 98.06403993 37.09349795 98.07543945 41.47851562 C98.0863929 45.71901389 98.09230294 49.95949324 98.09487724 54.20000458 C98.09670923 55.80891975 98.10028606 57.41783402 98.10573006 59.02674103 C98.16682744 77.85089699 97.78084103 94.53011692 84 109 C70.73483472 119.33085516 56.51544523 122.94197904 40 121 C25.15434049 118.1685767 14.64725693 110.86300924 5.75 99 C-1.40020017 86.74251399 -0.14215196 72.83145764 -0.09765625 59.08203125 C-0.09578737 57.37139426 -0.09436569 55.66075674 -0.09336853 53.95011902 C-0.08958037 49.48353556 -0.0797824 45.01698547 -0.06866455 40.55041504 C-0.05837015 35.97827607 -0.05385383 31.40613163 -0.04882812 26.83398438 C-0.03815621 17.88930602 -0.02059011 8.94466103 0 0 Z " fill="#020202" transform="translate(411,584)"/>
<!-- B -->
<path d="M0 0 C69.71428571 0 69.71428571 0 80 9 C86.12688219 15.2478075 88.55543822 22.33210129 89.375 30.9375 C88.99547412 38.74940777 87.03886917 45.97250672 81.5625 51.6953125 C79.53204464 53.39074273 77.55058263 54.32484577 75 55 C75 55.66 75 56.32 75 57 C76.134375 57.268125 77.26875 57.53625 78.4375 57.8125 C79.613125 58.204375 80.78875 58.59625 82 59 C82.33 59.99 82.66 60.98 83 62 C83.61875 62.309375 84.2375 62.61875 84.875 62.9375 C88.04931638 64.52465819 89.49669553 66.8939729 90.94921875 70.0859375 C94.11021795 79.88670752 94.68811655 90.31782401 90.2734375 99.8046875 C85.36892149 108.25971203 85.36892149 108.25971203 80.8125 109.68359375 C79.9153125 109.84021484 79.9153125 109.84021484 79 110 C79 110.66 79 111.32 79 112 C77.23871609 112.83299815 75.46519882 113.64013318 73.6875 114.4375 C72.70136719 114.88996094 71.71523438 115.34242188 70.69921875 115.80859375 C51.84702496 121.88031403 7.34149004 118 0 118 C0 79.06 0 40.12 0 0 Z " fill="#020202" transform="translate(524,584)"/>
<path d="M0 0 C4.00355334 -0.13849576 8.00094039 -0.25765819 12.00561523 -0.32958984 C13.36462697 -0.35959295 14.72344781 -0.40041185 16.08178711 -0.45263672 C28.81030203 -0.92943015 28.81030203 -0.92943015 33.3671875 2.7421875 C36.38126996 6.0032312 37.00075153 8.45886998 37.1328125 12.82421875 C36.93991538 15.98432747 36.50249815 18.19098172 35 21 C30.59674867 24.552706 27.69072876 25.49010139 22.0703125 25.390625 C20.78125 25.37773438 19.4921875 25.36484375 18.1640625 25.3515625 C16.81769732 25.31814906 15.47134315 25.28428937 14.125 25.25 C12.75523431 25.22991356 11.38544034 25.21166655 10.015625 25.1953125 C6.67677976 25.14828651 3.3382989 25.07654698 0 25 C0 16.75 0 8.5 0 0 Z " fill="#F6F6F6" transform="translate(550,606)"/>
<path d="M0 0 C4.12638651 -0.06928634 8.25127005 -0.12889011 12.37792969 -0.16479492 C13.77839031 -0.17977914 15.17880483 -0.20017379 16.57910156 -0.22631836 C31.74032531 -0.50207528 31.74032531 -0.50207528 38 3 C41.14081437 6.63312455 41.45625701 9.84372539 41.5 14.5625 C41.5309375 15.67753906 41.561875 16.79257812 41.59375 17.94140625 C41 21 41 21 38.84375 23.27734375 C33.55672621 26.48006008 28.98886608 27.24776809 22.8515625 27.1953125 C22.19417084 27.1924826 21.53677917 27.18965271 20.85946655 27.18673706 C18.78111767 27.17563447 16.70321634 27.15054986 14.625 27.125 C13.20703752 27.11495731 11.78906821 27.10583373 10.37109375 27.09765625 C6.91375571 27.0774379 3.45737265 27.0382735 0 27 C0 18.09 0 9.18 0 0 Z " fill="#F0F0F0" transform="translate(549,653)"/>
</svg>
