<?xml version="1.0" encoding="UTF-8"?>
<svg version="1.1" xmlns="http://www.w3.org/2000/svg" width="810" height="810">
<path d="M0 0 C4.11550341 3.75325861 7.18851589 8.19783979 10.4375 12.6875 C15.09945051 19.0743111 19.80499952 25.41901333 24.625 31.6875 C33.25615076 42.92489432 41.73618418 54.26816364 50.125 65.6875 C54.84154459 72.10693917 59.62490483 78.46077618 64.50390625 84.7578125 C68.94617318 90.50536463 73.27361296 96.34082212 77.62304688 102.15869141 C79.5168458 104.6911438 81.41458287 107.220633 83.3125 109.75 C84.01503906 110.68714844 84.71757812 111.62429687 85.44140625 112.58984375 C87.53033325 115.37536784 89.62251023 118.15844022 91.71484375 120.94140625 C93.05989955 122.73176804 94.40495161 124.52213264 95.75 126.3125 C96.38848877 127.16102539 97.02697754 128.00955078 97.68481445 128.88378906 C101.18652036 133.54660867 104.633132 138.23883743 108 143 C110.91834217 141.68516427 112.94920929 140.28366724 115.171875 137.98828125 C115.74993896 137.39861572 116.32800293 136.8089502 116.92358398 136.20141602 C117.52630127 135.57807373 118.12901855 134.95473145 118.75 134.3125 C123.12306839 129.85812472 127.51119664 125.54147036 132.27734375 121.50390625 C134.72116598 119.37041066 136.95828749 117.05149513 139.23046875 114.73828125 C141.03010481 112.97042684 142.89601912 111.32745458 144.8125 109.6875 C148.02333755 106.92381971 151.02267165 104.01380404 154 101 C157.52106323 97.43599698 161.13186008 94.09695832 164.9375 90.84375 C168.2100543 87.91828479 171.25126878 84.7689672 174.3125 81.625 C176.43132579 79.55544922 178.57137354 77.61784525 180.8125 75.6875 C185.08214126 71.9866102 189.04515888 68.03208411 193 64 C196.86224792 60.06231755 200.71913692 56.18807139 204.90625 52.59375 C209.68700152 48.47595425 214.07638084 43.99462429 218.5 39.5 C223.55956502 34.35922206 228.64138442 29.36099752 234.11523438 24.66210938 C237.22389463 21.92068981 240.10192002 18.96049259 243 16 C247.82595717 11.11709939 252.70185038 6.37673229 258 2 C259.25926375 5.77779125 258.74162969 8.25210441 258.2109375 12.19921875 C258.11670502 12.90890305 258.02247253 13.61858734 257.92538452 14.34977722 C257.00791072 21.16719961 255.99058061 27.97018576 254.94058228 34.76834106 C254.50171049 37.61109791 254.06827977 40.45467796 253.63441467 43.29820251 C253.41258936 44.75173913 253.19053453 46.20524074 252.96824646 47.65870667 C251.90292867 54.62464123 250.85199766 61.5926632 249.8125 68.5625 C249.65797363 69.58770752 249.50344727 70.61291504 249.34423828 71.66918945 C248.5051857 77.30796899 247.75473314 82.94964824 247.0703125 88.609375 C246.06492914 96.85433754 244.7803662 105.04695608 243.45648193 113.24597168 C242.78091789 117.43248029 242.11476324 121.62048226 241.44921875 125.80859375 C241.25540619 127.02755844 241.25540619 127.02755844 241.05767822 128.27114868 C239.98321385 135.05365061 238.98887383 141.84518602 238.04101562 148.64648438 C236.32286432 160.93478287 234.37076894 173.18916127 232.46337891 185.44921875 C230.67904065 196.9234375 228.90835427 208.3882141 227.4296875 219.90625 C226.9155517 223.60802778 226.22489861 227.26130215 225.52319336 230.93115234 C224.93778008 234.36495772 224.52516199 237.79796443 224.12109375 241.2578125 C223.4201308 247.05161955 222.58278166 252.80634987 221.59765625 258.55859375 C221.47329193 259.28507614 221.34892761 260.01155853 221.22079468 260.76005554 C220.71225244 263.71162304 220.19887939 266.66230459 219.67993164 269.61206055 C217.2669632 283.38344803 215.67086395 297.07613373 214 311 C73.75 311 -66.5 311 -211 311 C-212.32 302.09 -213.64 293.18 -215 284 C-215.83593158 278.84943009 -216.68045938 273.70473431 -217.5625 268.5625 C-219.10195342 259.46152756 -220.5786112 250.3587459 -221.91308594 241.22558594 C-222.79483273 235.23898927 -223.79244092 229.27690559 -224.8125 223.3125 C-226.68882863 212.29695975 -228.28574734 201.24707892 -229.875 190.1875 C-232.00953036 175.34130746 -234.3740907 160.55346959 -236.95825195 145.77929688 C-237.20402818 144.37371354 -237.44971737 142.96811499 -237.6953125 141.5625 C-237.87053688 140.55987122 -237.87053688 140.55987122 -238.04930115 139.5369873 C-239.09540867 133.51761191 -240.01384542 127.48479975 -240.88745117 121.43847656 C-241.98418298 113.92031215 -243.24160872 106.43003564 -244.5 98.9375 C-247.10586018 83.40067329 -249.61874891 67.8662528 -251.80297852 52.2644043 C-252.7961909 45.24368653 -253.91871117 38.24757635 -255.0625 31.25 C-256.6488051 21.52370064 -257.97542482 11.80087043 -259 2 C-252.6731337 6.30226908 -247.49319872 11.3852431 -242.15161133 16.81713867 C-238.47235766 20.55192076 -234.72494382 24.10562084 -230.72265625 27.49609375 C-228.27468564 29.63321095 -226.03399195 31.95642972 -223.7578125 34.2734375 C-222.02336652 35.97704888 -220.22761453 37.55144038 -218.375 39.125 C-213.800806 43.05088304 -209.6061847 47.34068202 -205.39208984 51.64501953 C-202.48773867 54.70165016 -202.48773867 54.70165016 -199 57 C-199 57.66 -199 58.32 -199 59 C-198.4234668 59.24983643 -197.84693359 59.49967285 -197.25292969 59.75708008 C-194.68536649 61.17358032 -193.00010232 62.78921967 -190.953125 64.88671875 C-189.8084375 66.0478418 -189.8084375 66.0478418 -188.640625 67.23242188 C-187.85171875 68.04259766 -187.0628125 68.85277344 -186.25 69.6875 C-181.21933912 74.83135075 -176.16808659 79.83211497 -170.70605469 84.51879883 C-168.70481045 86.25628435 -166.8404595 88.09380981 -165 90 C-162.46027814 92.5792506 -159.87548686 95.02217389 -157.125 97.375 C-153.93317491 100.11621449 -150.95697023 103.00685888 -148 106 C-145.16510001 108.86926241 -142.32879341 111.64486711 -139.25 114.25 C-135.29019736 117.63031933 -131.6595588 121.30242106 -128 125 C-123.16554156 129.87978946 -118.29342701 134.61331743 -113 139 C-112.401875 139.50273437 -111.80375 140.00546875 -111.1875 140.5234375 C-109.79697011 141.68865005 -108.39941946 142.84547895 -107 144 C-106.73960937 143.43796875 -106.47921875 142.8759375 -106.2109375 142.296875 C-104.87287094 139.75886489 -103.3261916 137.56132361 -101.625 135.25 C-100.91085937 134.27933594 -100.19671875 133.30867187 -99.4609375 132.30859375 C-95.18462249 126.54905236 -90.87687451 120.81309433 -86.56445312 115.08056641 C-84.03966721 111.72285331 -81.52003196 108.36128157 -79 105 C-78.00783858 103.67706377 -77.015651 102.35414717 -76.0234375 101.03125 C-75.5294043 100.37253906 -75.03537109 99.71382813 -74.52636719 99.03515625 C-60.08398438 79.77864583 -45.64160156 60.52213542 -31.19921875 41.265625 C-30.7079248 40.61053955 -30.21663086 39.9554541 -29.71044922 39.28051758 C-28.69264967 37.9235059 -27.67474551 36.56657268 -26.65673828 35.2097168 C-24.07469322 31.76794304 -21.49444504 28.32485118 -18.91796875 24.87890625 C-12.67631375 16.53543895 -6.37758558 8.24006632 0 0 Z " fill="#FFF" transform="translate(405,87)"/>
<path d="M0 0 C3.99236839 1.33078946 5.29726021 3.91089166 7.5625 7.25 C8.45765422 8.536537 9.35483997 9.82166255 10.25390625 11.10546875 C10.93864014 12.08459229 10.93864014 12.08459229 11.63720703 13.08349609 C13.68674311 15.96577094 15.83184818 18.76887026 18 21.5625 C18.40976074 22.09101563 18.81952148 22.61953125 19.24169922 23.1640625 C20.0727624 24.23438594 20.90446844 25.30421053 21.73681641 26.37353516 C23.89848742 29.15688504 26.04157224 31.95450732 28.1875 34.75 C30.90178608 38.28261689 33.62702289 41.80600136 36.375 45.3125 C40.11463008 50.10802563 43.74478155 54.98459498 47.38623047 59.85473633 C50.95755722 64.62557149 54.57221385 69.35907602 58.21679688 74.07421875 C61.96115634 78.92823784 65.63646239 83.8326827 69.30175781 88.74658203 C72.05492433 92.4307839 74.83485912 96.09124223 77.65234375 99.7265625 C78.25264404 100.50290039 78.85294434 101.27923828 79.47143555 102.07910156 C80.63941419 103.58681209 81.81133575 105.09147801 82.98754883 106.59277344 C83.77488403 107.61032715 83.77488403 107.61032715 84.578125 108.6484375 C85.28050293 109.54828369 85.28050293 109.54828369 85.99707031 110.46630859 C87 112 87 112 87 114 C87.66 114 88.32 114 89 114 C90.83707331 116.53389422 92.47932531 119.16544984 94.1484375 121.8125 C95.06496094 122.8953125 95.06496094 122.8953125 96 124 C97.32 124 98.64 124 100 124 C100 123.34 100 122.68 100 122 C101.2578125 120.765625 101.2578125 120.765625 103.125 119.25 C107.3090613 115.70620431 111.15173191 111.89841839 115 108 C119.17863328 103.77637619 123.37274703 99.69048239 127.921875 95.86328125 C131.43316386 92.71500158 134.69626593 89.30720827 137.96533203 85.90966797 C139.27408061 84.57015547 140.63338067 83.28041719 142 82 C142.66 82 143.32 82 144 82 C144.33 81.01 144.66 80.02 145 79 C146.42578125 77.59765625 146.42578125 77.59765625 148.3125 76.0625 C152.07422905 72.88157651 155.54702819 69.50616962 159 66 C162.90619915 62.04388526 166.87251539 58.26439596 171.1171875 54.66796875 C174.01405014 52.10166097 176.66779472 49.30492467 179.3359375 46.50390625 C181 45 181 45 183 45 C182.54802163 48.79245175 182.08723479 52.58378578 181.625 56.375 C181.49867188 57.43589844 181.37234375 58.49679688 181.2421875 59.58984375 C180.53275443 65.3717233 179.64850945 71.04825956 178.45068359 76.74853516 C177.80373901 79.9804544 177.39818317 83.22920964 177 86.5 C176.46167122 90.70569359 175.88463389 94.85327864 175 99 C174.16618384 102.94285161 173.58249161 106.8783703 173.0625 110.875 C172.70910549 113.58343763 172.35547986 116.29183596 172 119 C171.89042969 119.8357959 171.78085937 120.6715918 171.66796875 121.53271484 C171.31092786 124.21101196 170.938142 126.88675428 170.5625 129.5625 C170.45236572 130.40731934 170.34223145 131.25213867 170.22875977 132.12255859 C169.51716622 137.0932853 168.72139541 142.27860459 165 146 C163.25371659 146.09737417 161.50345062 146.12371462 159.75445461 146.12304783 C158.03763742 146.1260344 158.03763742 146.1260344 156.28613704 146.12908131 C155.01281884 146.12616847 153.73950065 146.12325563 152.42759705 146.12025452 C151.07379927 146.1206901 149.72000157 146.12156477 148.36620432 146.12284368 C144.6287368 146.12509118 140.89129765 146.1210639 137.15383375 146.11606562 C133.12995551 146.11176494 129.10607899 146.11320727 125.0821991 146.1139679 C118.10479793 146.11449338 111.12740607 146.11134409 104.15000725 146.10573006 C94.06174123 146.09761828 83.97347974 146.09500017 73.88521082 146.09374207 C57.51941859 146.09155104 41.15363133 146.08488958 24.7878418 146.07543945 C8.88582382 146.06626665 -7.01619281 146.05918517 -22.91821289 146.05493164 C-23.89768472 146.05466892 -24.87715654 146.05440619 -25.88630933 146.05413551 C-30.79981406 146.05283051 -35.7133188 146.0515668 -40.62682354 146.05032361 C-81.41788582 146.03994941 -122.20894263 146.02232972 -163 146 C-165.28522199 141.62308278 -166.48941386 138.16852568 -167.0625 133.25 C-167.58148702 129.14528451 -168.1261174 125.10674737 -169 121.0625 C-169.79122873 117.28151386 -170.33881474 113.52125176 -170.8125 109.6875 C-171.8028919 101.91490439 -173.14548729 94.21666234 -174.5 86.5 C-176.22099382 76.68204505 -177.79266714 66.8948802 -179 57 C-179.32873046 54.66601374 -179.6609387 52.33250788 -180 50 C-178 50 -178 50 -175.875 52 C-174.9140993 52.99753327 -173.95612292 53.99788636 -173 55 C-169.25337309 58.83487722 -165.50245522 62.62560377 -161.4375 66.125 C-153.24557232 73.18535791 -145.46563018 80.72800167 -137.6015625 88.1484375 C-127.62459947 97.56179503 -127.62459947 97.56179503 -117.46875 106.78125 C-113.81883614 110.06155233 -110.22723363 113.40466188 -106.63964844 116.75292969 C-103.18680007 119.95960876 -99.64337901 123.01112021 -96 126 C-90.49596029 118.88858586 -85.03130862 111.74856676 -79.625 104.5625 C-79.12581055 103.90121094 -78.62662109 103.23992187 -78.11230469 102.55859375 C-75.89373985 99.60250197 -73.75348238 96.64915966 -71.7734375 93.52734375 C-71.18820312 92.69332031 -70.60296875 91.85929687 -70 91 C-69.34 91 -68.68 91 -68 91 C-67.78601563 90.32195312 -67.57203125 89.64390625 -67.3515625 88.9453125 C-65.57460537 85.07298395 -63.0859092 82.13591257 -60.375 78.875 C-59.2716106 77.5223215 -58.17004999 76.1681492 -57.0703125 74.8125 C-56.53696289 74.15507812 -56.00361328 73.49765625 -55.45410156 72.8203125 C-53.64515698 70.55579087 -51.93522362 68.23280166 -50.25 65.875 C-46.2996867 60.35118664 -42.18513968 54.95861289 -38.0625 49.5625 C-31.86724163 41.45137919 -25.69825336 33.32380937 -19.61132812 25.13085938 C-13.26234816 16.5857433 -6.84456715 8.15817095 0 0 Z " fill="#EEEEE" transform="translate(405,194)"/>
</svg>
